<?xml version="1.0" encoding="utf-8"?>
<!-- Generator: Adobe Illustrator 21.1.0, SVG Export Plug-In . SVG Version: 6.00 Build 0)  -->
<!DOCTYPE svg PUBLIC "-//W3C//DTD SVG 1.1//EN" "http://www.w3.org/Graphics/SVG/1.1/DTD/svg11.dtd">
<svg version="1.1" id="Layer_1" xmlns="http://www.w3.org/2000/svg" xmlns:xlink="http://www.w3.org/1999/xlink" x="0px" y="0px"
   viewBox="0 0 290.7 290.7" style="enable-background:new 0 0 290.7 290.7;" xml:space="preserve">
<style type="text/css">
  .st0{fill:#E6E6E6;}
  .st0{fill:#EBEAE7;}
  @keyframes dot {
    0%, 6%, 30%, 36%, 70%, 76% {
      opacity: 1;
    }
    1%, 5%, 31%, 35%, 71%, 75% {
      opacity: 0;
    }
  }
  .dot1 {
    animation: dot 8000ms linear infinite;
  }
  .dot2 {
    animation: dot 8000ms linear -4200ms infinite;
  }
  .dot3 {
    animation: dot 10000ms linear -8000ms infinite;
  }
  .dot4 {
    animation: dot 7000ms linear -1000ms infinite;
  }
  .dot5 {
    animation: dot 5000ms linear -2500ms infinite;
  }
</style>
<circle class="st0 dot1" cx="246.7" cy="246.6" r="2"/>
<circle class="st0" cx="287.2" cy="246.6" r="2"/>
<circle class="st0" cx="246.7" cy="206" r="2"/>
<circle class="st0 dot3" cx="287.2" cy="206" r="2"/>
<circle class="st0" cx="246.7" cy="165.4" r="2"/>
<circle class="st0" cx="287.2" cy="165.4" r="2"/>
<circle class="st0" cx="246.7" cy="124.8" r="2"/>
<circle class="st0 dot5" cx="287.2" cy="124.8" r="2"/>
<circle class="st0" cx="246.7" cy="84.2" r="2"/>
<circle class="st0" cx="287.2" cy="84.2" r="2"/>
<circle class="st0" cx="246.7" cy="43.6" r="2"/>
<circle class="st0" cx="287.2" cy="43.6" r="2"/>
<circle class="st0" cx="3.5" cy="287.2" r="2"/>
<circle class="st0 dot3" cx="44.1" cy="287.2" r="2"/>
<circle class="st0" cx="84.6" cy="287.2" r="2"/>
<circle class="st0" cx="125.2" cy="287.2" r="2"/>
<circle class="st0" cx="165.7" cy="287.2" r="2"/>
<circle class="st0" cx="206.3" cy="287.2" r="2"/>
<circle class="st0" cx="246.7" cy="287.2" r="2"/>
<circle class="st0" cx="287.2" cy="287.2" r="2"/>
<circle class="st0" cx="3.5" cy="246.6" r="2"/>
<circle class="st0" cx="44.1" cy="246.6" r="2"/>
<circle class="st0" cx="84.6" cy="246.6" r="2"/>
<circle class="st0 dot4" cx="125.2" cy="246.6" r="2"/>
<circle class="st0" cx="165.7" cy="246.6" r="2"/>
<circle class="st0" cx="206.3" cy="246.6" r="2"/>
<circle class="st0" cx="3.5" cy="206" r="2"/>
<circle class="st0" cx="44.1" cy="206" r="2"/>
<circle class="st0" cx="84.6" cy="206" r="2"/>
<circle class="st0" cx="125.2" cy="206" r="2"/>
<circle class="st0" cx="165.7" cy="206" r="2"/>
<circle class="st0 dot5" cx="206.3" cy="206" r="2"/>
<circle class="st0" cx="3.5" cy="165.4" r="2"/>
<circle class="st0 dot2" cx="44.1" cy="165.4" r="2"/>
<circle class="st0" cx="84.6" cy="165.4" r="2"/>
<circle class="st0" cx="125.2" cy="165.4" r="2"/>
<circle class="st0" cx="165.7" cy="165.4" r="2"/>
<circle class="st0" cx="206.3" cy="165.4" r="2"/>
<circle class="st0" cx="3.5" cy="124.8" r="2"/>
<circle class="st0" cx="44.1" cy="124.8" r="2"/>
<circle class="st0" cx="84.6" cy="124.8" r="2"/>
<circle class="st0" cx="125.2" cy="124.8" r="2"/>
<circle class="st0" cx="165.7" cy="124.8" r="2"/>
<circle class="st0" cx="206.3" cy="124.8" r="2"/>
<circle class="st0 dot5" cx="3.5" cy="84.2" r="2"/>
<circle class="st0" cx="44.1" cy="84.2" r="2"/>
<circle class="st0" cx="84.6" cy="84.2" r="2"/>
<circle class="st0" cx="125.2" cy="84.2" r="2"/>
<circle class="st0" cx="165.7" cy="84.2" r="2"/>
<circle class="st0 dot1" cx="206.3" cy="84.2" r="2"/>
<circle class="st0" cx="3.5" cy="43.6" r="2"/>
<circle class="st0" cx="44.1" cy="43.6" r="2"/>
<circle class="st0" cx="84.6" cy="43.6" r="2"/>
<circle class="st0" cx="125.2" cy="43.6" r="2"/>
<circle class="st0" cx="165.7" cy="43.6" r="2"/>
<circle class="st0" cx="206.3" cy="43.6" r="2"/>
<circle class="st0 dot3" cx="246.7" cy="3.5" r="2"/>
<circle class="st0" cx="287.2" cy="3.5" r="2"/>
<circle class="st0" cx="3.5" cy="3.5" r="2"/>
<circle class="st0" cx="44.1" cy="3.5" r="2"/>
<circle class="st0" cx="84.6" cy="3.5" r="2"/>
<circle class="st0 dot4" cx="125.2" cy="3.5" r="2"/>
<circle class="st0 dot2" cx="165.7" cy="3.5" r="2"/>
<circle class="st0" cx="206.3" cy="3.5" r="2"/>
</svg>
