<?xml version="1.0" encoding="UTF-8" standalone="no"?>
<svg
   xmlns:dc="http://purl.org/dc/elements/1.1/"
   xmlns:cc="http://creativecommons.org/ns#"
   xmlns:rdf="http://www.w3.org/1999/02/22-rdf-syntax-ns#"
   xmlns:svg="http://www.w3.org/2000/svg"
   xmlns="http://www.w3.org/2000/svg"
   viewBox="0 0 52.495999 48.000001"
   height="48"
   width="52.495998"
   xml:space="preserve"
   id="svg2"
   version="1.1"><metadata
     id="metadata8"><rdf:RDF><cc:Work
         rdf:about=""><dc:format>image/svg+xml</dc:format><dc:type
           rdf:resource="http://purl.org/dc/dcmitype/StillImage" /></cc:Work></rdf:RDF></metadata><defs
     id="defs6"><clipPath
       id="clipPath22"
       clipPathUnits="userSpaceOnUse"><path
         id="path20"
         d="M 0,243.5 H 230 V 0 H 0 Z" /></clipPath><clipPath
       id="clipPath58"
       clipPathUnits="userSpaceOnUse"><path
         id="path56"
         d="M 0,243.5 H 230 V 0 H 0 Z" /></clipPath></defs><g
     transform="matrix(1.3333333,0,0,-1.3333333,-155.18,144.49733)"
     id="g10"><path
       id="path12"
       style="fill:#ffffff;fill-opacity:1;fill-rule:nonzero;stroke:none"
       d="m 116.385,72.373 h 39.372 v 36 h -39.372 z" /><path
       id="path14"
       style="fill:#b30838;fill-opacity:1;fill-rule:nonzero;stroke:none"
       d="m 117.016,73.067 h 38.044 v 34.671 h -38.044 z" /><g
       id="g16"><g
         clip-path="url(#clipPath22)"
         id="g18"><g
           transform="translate(118.7939,83.4727)"
           id="g24"><path
             id="path26"
             style="fill:#ffcd27;fill-opacity:1;fill-rule:nonzero;stroke:none"
             d="m 0,0 v -3.76 c 6.008,3.401 17.398,8.471 34.612,9.884 V 6.936 C 21.959,6.24 10.009,3.879 0,0" /></g><g
           transform="translate(118.7939,78.334)"
           id="g28"><path
             id="path30"
             style="fill:#ffffff;fill-opacity:1;fill-rule:nonzero;stroke:none"
             d="M 0,0 V -2.58 C 8.568,3.78 21.119,8.156 34.612,9.603 v 0.78 C 21.279,9.178 9.561,5.576 0,0" /></g><g
           transform="translate(137.9443,98.9893)"
           id="g32"><path
             id="path34"
             style="fill:#ffcd27;fill-opacity:1;fill-rule:nonzero;stroke:none"
             d="m 0,0 c -0.361,0 -0.581,0.026 -0.697,0.048 v 2.513 c 0,0.467 0.02,0.898 0.064,1.196 0.134,0.044 0.522,0.107 0.811,0.107 1.368,0 1.974,-0.583 1.974,-1.847 C 2.152,0.26 0.827,0.01 0,0 m 2.488,-3.348 c 0,-1.725 -0.961,-2.432 -2.416,-2.432 -0.294,0 -0.586,0.035 -0.769,0.089 v 4.856 h 0.639 c 1.833,0 2.546,-0.928 2.546,-2.513 m -0.581,3.085 c 1.305,0.367 2.404,1.3 2.404,2.71 0,1.359 -0.883,2.27 -2.691,2.27 -0.861,0 -1.945,-0.086 -2.726,-0.086 -0.768,0 -1.586,0.008 -2.519,0.057 l -0.06,0.007 V 4.633 4.066 l 0.053,-0.004 c 0.783,-0.06 0.844,-0.209 0.844,-1.474 v -7.492 c 0,-0.67 -0.088,-0.997 -0.705,-1.046 L -3.67,-5.964 v -0.615 c 0.593,0.031 1.695,0.06 2.17,0.06 0.48,0 0.851,-0.025 1.454,-0.053 3.613,-0.157 4.784,1.894 4.784,3.542 0,1.975 -1.444,2.47 -2.831,2.75" /></g><g
           transform="translate(128.5654,93.9287)"
           id="g36"><path
             id="path38"
             style="fill:#ffcd27;fill-opacity:1;fill-rule:nonzero;stroke:none"
             d="m 0,0 c -0.714,-0.445 -1.548,-0.635 -2.493,-0.635 -2.547,0 -3.812,1.965 -3.812,5.082 0,2.74 1.214,4.554 3.537,4.554 0.793,0 1.431,-0.284 1.858,-0.682 0.069,-0.256 0.161,-1.594 0.161,-1.594 L -0.097,6.723 -0.099,6.77 c 0.006,0.582 0.167,1.926 0.288,2.602 L 0.193,9.424 0.149,9.431 c -0.915,0.239 -1.841,0.448 -3.082,0.448 -2.802,0 -5.661,-1.698 -5.661,-5.628 0,-4.119 2.513,-5.903 5.537,-5.903 0.833,0 1.933,0.124 2.823,0.611 l 0.013,0.007 0.432,0.817 -0.176,0.239" /></g><g
           transform="translate(151.9941,93.9287)"
           id="g40"><path
             id="path42"
             style="fill:#ffcd27;fill-opacity:1;fill-rule:nonzero;stroke:none"
             d="m 0,0 c -0.713,-0.445 -1.545,-0.635 -2.493,-0.635 -2.543,0 -3.809,1.965 -3.809,5.082 0,2.74 1.213,4.554 3.535,4.554 0.793,0 1.435,-0.284 1.858,-0.682 0.07,-0.256 0.162,-1.594 0.162,-1.594 L -0.095,6.723 -0.1,6.77 c 0.009,0.582 0.169,1.926 0.293,2.602 L 0.198,9.424 0.151,9.431 c -0.917,0.239 -1.844,0.448 -3.082,0.448 -2.803,0 -5.662,-1.698 -5.662,-5.628 0,-4.119 2.513,-5.903 5.54,-5.903 0.827,0 1.93,0.124 2.82,0.611 l 0.014,0.007 0.431,0.817 -0.173,0.239" /></g><g
           transform="translate(131.4961,103.6201)"
           id="g44"><path
             id="path46"
             style="fill:#ffcd27;fill-opacity:1;fill-rule:nonzero;stroke:none"
             d="m 0,0 c -0.654,0 -1.388,0.008 -2.016,0.062 l -0.051,0.003 v -0.622 l 0.045,-0.002 c 0.817,-0.055 0.926,-0.189 0.926,-1.606 v -7.111 c 0,-1.086 -0.055,-1.254 -0.886,-1.306 l -0.048,-0.006 v -0.622 l 0.051,0.004 c 0.628,0.057 1.296,0.064 1.951,0.064 0.639,0 1.256,-0.007 1.932,-0.064 l 0.054,-0.004 v 0.622 l -0.044,0.006 c -0.833,0.052 -0.879,0.221 -0.879,1.306 v 7.111 c 0,1.441 0.053,1.551 0.875,1.606 l 0.044,0.002 V 0.065 L 1.904,0.062 C 1.228,0.008 0.643,0 0,0" /></g></g></g><path
       id="path48"
       style="fill:#ffffff;fill-opacity:1;fill-rule:nonzero;stroke:none"
       d="m 116.385,72.373 h 39.372 v 36 h -39.372 z" /><path
       id="path50"
       style="fill:#000000;fill-opacity:1;fill-rule:nonzero;stroke:none"
       d="m 117.016,73.067 h 38.044 v 34.671 h -38.044 z" /><g
       id="g52"><g
         clip-path="url(#clipPath58)"
         id="g54"><g
           transform="translate(118.7939,83.4727)"
           id="g60"><path
             id="path62"
             style="fill:#cacaca;fill-opacity:1;fill-rule:nonzero;stroke:none"
             d="m 0,0 v -3.76 c 6.008,3.401 17.398,8.471 34.612,9.884 V 6.936 C 21.959,6.24 10.009,3.879 0,0" /></g><g
           transform="translate(118.7939,78.334)"
           id="g64"><path
             id="path66"
             style="fill:#ffffff;fill-opacity:1;fill-rule:nonzero;stroke:none"
             d="M 0,0 V -2.58 C 8.568,3.78 21.119,8.156 34.612,9.603 v 0.78 C 21.279,9.178 9.561,5.576 0,0" /></g><g
           transform="translate(137.9443,98.9893)"
           id="g68"><path
             id="path70"
             style="fill:#cacaca;fill-opacity:1;fill-rule:nonzero;stroke:none"
             d="m 0,0 c -0.361,0 -0.581,0.026 -0.697,0.048 v 2.513 c 0,0.467 0.02,0.898 0.064,1.196 0.134,0.044 0.522,0.107 0.811,0.107 1.368,0 1.974,-0.583 1.974,-1.847 C 2.152,0.26 0.827,0.01 0,0 m 2.488,-3.348 c 0,-1.725 -0.961,-2.432 -2.416,-2.432 -0.294,0 -0.586,0.035 -0.769,0.089 v 4.856 h 0.639 c 1.833,0 2.546,-0.928 2.546,-2.513 m -0.581,3.085 c 1.305,0.367 2.404,1.3 2.404,2.71 0,1.359 -0.883,2.27 -2.691,2.27 -0.861,0 -1.945,-0.086 -2.726,-0.086 -0.768,0 -1.586,0.008 -2.519,0.057 l -0.06,0.007 V 4.633 4.066 l 0.053,-0.004 c 0.783,-0.06 0.844,-0.209 0.844,-1.474 v -7.492 c 0,-0.67 -0.088,-0.997 -0.705,-1.046 L -3.67,-5.964 v -0.615 c 0.593,0.031 1.695,0.06 2.17,0.06 0.48,0 0.851,-0.025 1.454,-0.053 3.613,-0.157 4.784,1.894 4.784,3.542 0,1.975 -1.444,2.47 -2.831,2.75" /></g><g
           transform="translate(128.5654,93.9287)"
           id="g72"><path
             id="path74"
             style="fill:#cacaca;fill-opacity:1;fill-rule:nonzero;stroke:none"
             d="m 0,0 c -0.714,-0.445 -1.548,-0.635 -2.493,-0.635 -2.547,0 -3.812,1.965 -3.812,5.082 0,2.74 1.214,4.554 3.537,4.554 0.793,0 1.431,-0.284 1.858,-0.682 0.069,-0.256 0.161,-1.594 0.161,-1.594 L -0.097,6.723 -0.099,6.77 c 0.006,0.582 0.167,1.926 0.288,2.602 L 0.193,9.424 0.149,9.431 c -0.915,0.239 -1.841,0.448 -3.082,0.448 -2.802,0 -5.661,-1.698 -5.661,-5.628 0,-4.119 2.513,-5.903 5.537,-5.903 0.833,0 1.933,0.124 2.823,0.611 l 0.013,0.007 0.432,0.817 -0.176,0.239" /></g><g
           transform="translate(151.9941,93.9287)"
           id="g76"><path
             id="path78"
             style="fill:#cacaca;fill-opacity:1;fill-rule:nonzero;stroke:none"
             d="m 0,0 c -0.713,-0.445 -1.545,-0.635 -2.493,-0.635 -2.543,0 -3.809,1.965 -3.809,5.082 0,2.74 1.213,4.554 3.535,4.554 0.793,0 1.435,-0.284 1.858,-0.682 0.07,-0.256 0.162,-1.594 0.162,-1.594 L -0.095,6.723 -0.1,6.77 c 0.009,0.582 0.169,1.926 0.293,2.602 L 0.198,9.424 0.151,9.431 c -0.917,0.239 -1.844,0.448 -3.082,0.448 -2.803,0 -5.662,-1.698 -5.662,-5.628 0,-4.119 2.513,-5.903 5.54,-5.903 0.827,0 1.93,0.124 2.82,0.611 l 0.014,0.007 0.431,0.817 -0.173,0.239" /></g><g
           transform="translate(131.4961,103.6201)"
           id="g80"><path
             id="path82"
             style="fill:#cacaca;fill-opacity:1;fill-rule:nonzero;stroke:none"
             d="m 0,0 c -0.654,0 -1.388,0.008 -2.016,0.062 l -0.051,0.003 v -0.622 l 0.045,-0.002 c 0.817,-0.055 0.926,-0.189 0.926,-1.606 v -7.111 c 0,-1.086 -0.055,-1.254 -0.886,-1.306 l -0.048,-0.006 v -0.622 l 0.051,0.004 c 0.628,0.057 1.296,0.064 1.951,0.064 0.639,0 1.256,-0.007 1.932,-0.064 l 0.054,-0.004 v 0.622 l -0.044,0.006 c -0.833,0.052 -0.879,0.221 -0.879,1.306 v 7.111 c 0,1.441 0.053,1.551 0.875,1.606 l 0.044,0.002 V 0.065 L 1.904,0.062 C 1.228,0.008 0.643,0 0,0" /></g></g></g></g></svg>