<svg xmlns="http://www.w3.org/2000/svg" xmlns:xlink="http://www.w3.org/1999/xlink" width="160" height="106" viewBox="0 0 160 106">
  <defs>
    <clipPath id="clip-Web_1920_1">
      <rect width="160" height="106"/>
    </clipPath>
  </defs>
  <g id="Web_1920_1" data-name="Web 1920 – 1" clip-path="url(#clip-Web_1920_1)">
    <g id="bubble-chat-text" transform="translate(27)">
      <g id="Duotone" transform="translate(2.2 6.601)">
        <path id="Path_42" data-name="Path 42" d="M97.318,18.223,48.909,1.5.5,18.223v50.61L40.107,80.715v17.6L97.318,68.833Z" transform="translate(-0.5 -1.5)" fill="#dbdbdb"/>
        <g id="Group_15" data-name="Group 15" transform="translate(39.607 13.202)">
          <path id="Path_43" data-name="Path 43" d="M55.709,4.5V49.829L9.5,73.593V88.116L66.711,58.63V8.021Z" transform="translate(-9.5 -4.5)" fill="#de638b"/>
        </g>
        <g id="Group_16" data-name="Group 16">
          <path id="Path_44" data-name="Path 44" d="M97.318,18.223,48.909,1.5.5,18.223v50.61L40.107,80.715v17.6L97.318,68.833Z" transform="translate(-0.5 -1.5)" fill="none" stroke="#60605f" stroke-linecap="round" stroke-linejoin="round" stroke-miterlimit="10" stroke-width="2"/>
          <line id="Line_12" data-name="Line 12" x2="61.612" transform="translate(17.603 26.405)" fill="none" stroke="#5a5a59" stroke-linecap="round" stroke-linejoin="round" stroke-miterlimit="10" stroke-width="2"/>
          <path id="Path_672" data-name="Path 672" d="M0,0H61.612" transform="translate(17.603 39.607)" fill="none" stroke="#5a5a59" stroke-linecap="round" stroke-width="2"/>
          <path id="Path_673" data-name="Path 673" d="M0,0H30.806" transform="translate(17.603 52.81)" fill="none" stroke="#5a5a59" stroke-linecap="round" stroke-width="2"/>
        </g>
      </g>
      <g id="Frames-24px">
        <rect id="Rectangle_9" data-name="Rectangle 9" width="106" height="106" fill="none"/>
      </g>
    </g>
  </g>
</svg>
