<svg xmlns="http://www.w3.org/2000/svg" xmlns:xlink="http://www.w3.org/1999/xlink" width="160" height="106" viewBox="0 0 160 106"><defs><linearGradient id="a" x1="0.5" x2="0.5" y2="1" gradientUnits="objectBoundingBox"><stop offset="0" stop-color="#c8e6aa"/><stop offset="1" stop-color="#a2cce4"/></linearGradient><clipPath id="c"><rect width="160" height="106"/></clipPath></defs><g id="b" clip-path="url(#c)"><g transform="translate(27)"><g transform="translate(2.2 6.601)"><path d="M97.318,18.223,48.909,1.5.5,18.223v50.61L40.107,80.715v17.6L97.318,68.833Z" transform="translate(-0.5 -1.5)" fill="#fff"/><g transform="translate(39.607 13.202)"><path d="M55.709,4.5V49.829L9.5,73.593V88.116L66.711,58.63V8.021Z" transform="translate(-9.5 -4.5)" fill="url(#a)"/></g><path d="M97.318,18.223,48.909,1.5.5,18.223v50.61L40.107,80.715v17.6L97.318,68.833Z" transform="translate(-0.5 -1.5)" fill="none" stroke="#616d78" stroke-linecap="round" stroke-linejoin="round" stroke-miterlimit="10" stroke-width="2"/><line x2="61.612" transform="translate(17.603 26.405)" stroke-width="2" stroke="#616d78" stroke-linecap="round" stroke-linejoin="round" stroke-miterlimit="10" fill="none"/><path d="M0,0H61.612" transform="translate(17.603 39.607)" fill="none" stroke="#616d78" stroke-linecap="round" stroke-width="2"/><path d="M0,0H30.806" transform="translate(17.603 52.81)" fill="none" stroke="#616d78" stroke-linecap="round" stroke-width="2"/></g><rect width="106" height="106" fill="none"/></g></g></svg>