<svg xmlns="http://www.w3.org/2000/svg" xmlns:xlink="http://www.w3.org/1999/xlink" width="160" height="106" viewBox="0 0 160 106"><defs><linearGradient id="a" x1="0.5" x2="0.5" y2="1" gradientUnits="objectBoundingBox"><stop offset="0" stop-color="#c8e6aa"/><stop offset="1" stop-color="#a2cce4"/></linearGradient><clipPath id="c"><rect width="160" height="106"/></clipPath></defs><g id="b" clip-path="url(#c)"><g transform="translate(27)"><g transform="translate(2.208 6.625)"><path d="M99.875,69.958,95.458,45.667H91.042V65.542L83.533,41.25h18.55L93.25,1.5H9.333L.5,41.25H19.05L11.542,65.542V45.667H7.125L2.708,69.958,4.917,85.417.5,98.667H27l2.208-8.833L46.875,67.75l-4.417-2.208L31.417,72.167l7.95-30.917H63.658l7.95,30.917L60.125,65.542,55.708,67.75,73.375,89.833l2.208,8.833h26.5l-4.417-13.25ZM22.583,65.542,26.117,41.25h5.742ZM70.725,41.25h5.742L80,65.542Z" transform="translate(-0.5 -1.5)" fill="#fff"/><path d="M20.375,12.917H27l-.883,4.417h5.742l1.767-4.417H40.25l-.883,4.417H63.658l-1.325-4.417h6.625l1.767,4.417h5.742l-.883-4.417h6.625l1.325,4.417h18.55L100.317,8.5H2.267L.5,17.333H19.05Z" transform="translate(-0.5 22.417)" fill="url(#a)"/><line x1="4.417" transform="translate(48.583 39.75)" stroke-width="2" stroke="#616d78" stroke-linecap="round" stroke-linejoin="round" stroke-miterlimit="10" fill="none"/><line x2="2.208" transform="translate(22.083 13.25)" stroke-width="2" stroke="#616d78" stroke-linecap="round" stroke-linejoin="round" stroke-miterlimit="10" fill="none"/><line x2="2.208" transform="translate(33.125 13.25)" stroke-width="2" stroke="#616d78" stroke-linecap="round" stroke-linejoin="round" stroke-miterlimit="10" fill="none"/><line x2="2.208" transform="translate(44.167 13.25)" stroke-width="2" stroke="#616d78" stroke-linecap="round" stroke-linejoin="round" stroke-miterlimit="10" fill="none"/><line x2="2.208" transform="translate(55.208 13.25)" stroke-width="2" stroke="#616d78" stroke-linecap="round" stroke-linejoin="round" stroke-miterlimit="10" fill="none"/><line x2="2.208" transform="translate(66.25 13.25)" stroke-width="2" stroke="#616d78" stroke-linecap="round" stroke-linejoin="round" stroke-miterlimit="10" fill="none"/><line x2="2.208" transform="translate(77.292 13.25)" stroke-width="2" stroke="#616d78" stroke-linecap="round" stroke-linejoin="round" stroke-miterlimit="10" fill="none"/><line x2="2.208" transform="translate(17.667 22.083)" stroke-width="2" stroke="#616d78" stroke-linecap="round" stroke-linejoin="round" stroke-miterlimit="10" fill="none"/><line x2="2.208" transform="translate(28.708 22.083)" stroke-width="2" stroke="#616d78" stroke-linecap="round" stroke-linejoin="round" stroke-miterlimit="10" fill="none"/><line x2="2.208" transform="translate(39.75 22.083)" stroke-width="2" stroke="#616d78" stroke-linecap="round" stroke-linejoin="round" stroke-miterlimit="10" fill="none"/><line x2="2.208" transform="translate(50.792 22.083)" stroke-width="2" stroke="#616d78" stroke-linecap="round" stroke-linejoin="round" stroke-miterlimit="10" fill="none"/><line x2="2.208" transform="translate(61.833 22.083)" stroke-width="2" stroke="#616d78" stroke-linecap="round" stroke-linejoin="round" stroke-miterlimit="10" fill="none"/><line x2="2.208" transform="translate(72.875 22.083)" stroke-width="2" stroke="#616d78" stroke-linecap="round" stroke-linejoin="round" stroke-miterlimit="10" fill="none"/><line x2="2.208" transform="translate(83.917 22.083)" stroke-width="2" stroke="#616d78" stroke-linecap="round" stroke-linejoin="round" stroke-miterlimit="10" fill="none"/><path d="M.5,41.25,9.333,1.5H93.25l8.833,39.75" transform="translate(-0.5 -1.5)" fill="none" stroke="#616d78" stroke-linecap="round" stroke-linejoin="round" stroke-miterlimit="10" stroke-width="2"/><path d="M.5,71.333l4.417-13.25L2.708,42.625,7.125,18.333h4.417V38.208L20.375,9.5H27L22.583,38.208,33.625,9.5H40.25L31.417,44.833l11.042-6.625,4.417,2.208L29.208,62.5,27,71.333" transform="translate(-0.5 25.833)" fill="none" stroke="#616d78" stroke-linecap="round" stroke-linejoin="round" stroke-miterlimit="10" stroke-width="2"/><path d="M59.375,71.333l-4.417-13.25,2.208-15.458L52.75,18.333H48.333V38.208L39.5,9.5H32.875l4.417,28.708L26.25,9.5H19.625l8.833,35.333L17.417,38.208,13,40.417,30.667,62.5l2.208,8.833" transform="translate(42.208 25.833)" fill="none" stroke="#616d78" stroke-linecap="round" stroke-linejoin="round" stroke-miterlimit="10" stroke-width="2"/></g><rect width="106" height="106" fill="none"/></g></g></svg>