<svg xmlns="http://www.w3.org/2000/svg" xmlns:xlink="http://www.w3.org/1999/xlink" width="160" height="106" viewBox="0 0 160 106">
  <defs>
    <clipPath id="clip-Web_1920_4">
      <rect width="160" height="106"/>
    </clipPath>
  </defs>
  <g id="Web_1920_4" data-name="Web 1920 – 4" clip-path="url(#clip-Web_1920_4)">
    <g id="pencil-diary" transform="translate(27)">
      <g id="Duotone" transform="translate(2.208 2.208)">
        <path id="Path_446" data-name="Path 446" d="M27.333,2,18.5,17.458v66.25H36.167V17.458Z" transform="translate(61 4.625)" fill="#dbdbdb"/>
        <path id="Path_447" data-name="Path 447" d="M66.75,98.667H.5V1.5H57.917l8.833,8.833Z" transform="translate(-0.5 2.917)" fill="#dbdbdb"/>
        <path id="Path_448" data-name="Path 448" d="M18.5,20.5v8.833l8.833,4.417,8.833-4.417V20.5Z" transform="translate(61 67.833)" fill="#de638b"/>
        <rect id="Rectangle_121" data-name="Rectangle 121" width="66.25" height="13.25" transform="translate(0 70.667)" fill="#de638b"/>
        <line id="Line_243" data-name="Line 243" y2="6.625" transform="translate(88.333)" fill="none" stroke="#60605f" stroke-linecap="round" stroke-linejoin="round" stroke-miterlimit="10" stroke-width="2"/>
        <path id="Path_449" data-name="Path 449" d="M27.333,2,18.5,17.458l8.833,8.833,8.833-8.833Z" transform="translate(61 4.625)" fill="none" stroke="#60605f" stroke-linecap="round" stroke-linejoin="round" stroke-miterlimit="10" stroke-width="2"/>
        <path id="Path_450" data-name="Path 450" d="M18.5,5.5V71.75H36.167V5.5" transform="translate(61 16.583)" fill="none" stroke="#60605f" stroke-linecap="round" stroke-linejoin="round" stroke-miterlimit="10" stroke-width="2"/>
        <line id="Line_244" data-name="Line 244" y2="48.583" transform="translate(88.333 30.917)" fill="none" stroke="#60605f" stroke-linecap="round" stroke-linejoin="round" stroke-miterlimit="10" stroke-width="2"/>
        <path id="Path_451" data-name="Path 451" d="M18.5,20.5v8.833l8.833,4.417,8.833-4.417V20.5Z" transform="translate(61 67.833)" fill="none" stroke="#60605f" stroke-linecap="round" stroke-linejoin="round" stroke-miterlimit="10" stroke-width="2"/>
        <line id="Line_245" data-name="Line 245" x2="66.25" transform="translate(0 70.667)" fill="none" stroke="#60605f" stroke-linecap="round" stroke-linejoin="round" stroke-miterlimit="10" stroke-width="2"/>
        <line id="Line_246" data-name="Line 246" x2="66.25" transform="translate(0 83.917)" fill="none" stroke="#60605f" stroke-linecap="round" stroke-linejoin="round" stroke-miterlimit="10" stroke-width="2"/>
        <path id="Path_452" data-name="Path 452" d="M35.417,31,19.958,39.833,4.5,31V13.333L19.958,4.5l15.458,8.833Z" transform="translate(13.167 13.167)" fill="none" stroke="#60605f" stroke-linecap="round" stroke-linejoin="round" stroke-miterlimit="10" stroke-width="2"/>
        <path id="Path_453" data-name="Path 453" d="M66.75,98.667H.5V1.5H57.917l8.833,8.833Z" transform="translate(-0.5 2.917)" fill="none" stroke="#60605f" stroke-linecap="round" stroke-linejoin="round" stroke-miterlimit="10" stroke-width="2"/>
      </g>
      <g id="Frames-24px">
        <rect id="Rectangle_122" data-name="Rectangle 122" width="106" height="106" fill="none"/>
      </g>
    </g>
  </g>
</svg>
