<svg xmlns="http://www.w3.org/2000/svg" xmlns:xlink="http://www.w3.org/1999/xlink" width="160" height="106" viewBox="0 0 160 106"><defs><linearGradient id="a" x1="0.5" x2="0.5" y2="1" gradientUnits="objectBoundingBox"><stop offset="0" stop-color="#c8e6aa"/><stop offset="1" stop-color="#a2cce4"/></linearGradient><clipPath id="d"><rect width="160" height="106"/></clipPath></defs><g id="c" clip-path="url(#d)"><g transform="translate(27)"><g transform="translate(2.208 2.208)"><path d="M27.333,2,18.5,17.458v66.25H36.167V17.458Z" transform="translate(61 4.625)" fill="#fff"/><path d="M66.75,98.667H.5V1.5H57.917l8.833,8.833Z" transform="translate(-0.5 2.917)" fill="#fff"/><path d="M18.5,20.5v8.833l8.833,4.417,8.833-4.417V20.5Z" transform="translate(61 67.833)" fill="url(#a)"/><rect width="66.25" height="13.25" transform="translate(0 70.667)" fill="url(#a)"/><line y2="6.625" transform="translate(88.333)" stroke-width="2" stroke="#616d78" stroke-linecap="round" stroke-linejoin="round" stroke-miterlimit="10" fill="none"/><path d="M27.333,2,18.5,17.458l8.833,8.833,8.833-8.833Z" transform="translate(61 4.625)" fill="none" stroke="#616d78" stroke-linecap="round" stroke-linejoin="round" stroke-miterlimit="10" stroke-width="2"/><path d="M18.5,5.5V71.75H36.167V5.5" transform="translate(61 16.583)" fill="none" stroke="#616d78" stroke-linecap="round" stroke-linejoin="round" stroke-miterlimit="10" stroke-width="2"/><line y2="48.583" transform="translate(88.333 30.917)" stroke-width="2" stroke="#616d78" stroke-linecap="round" stroke-linejoin="round" stroke-miterlimit="10" fill="none"/><path d="M18.5,20.5v8.833l8.833,4.417,8.833-4.417V20.5Z" transform="translate(61 67.833)" fill="none" stroke="#616d78" stroke-linecap="round" stroke-linejoin="round" stroke-miterlimit="10" stroke-width="2"/><line x2="66.25" transform="translate(0 70.667)" stroke-width="2" stroke="#616d78" stroke-linecap="round" stroke-linejoin="round" stroke-miterlimit="10" fill="none"/><line x2="66.25" transform="translate(0 83.917)" stroke-width="2" stroke="#616d78" stroke-linecap="round" stroke-linejoin="round" stroke-miterlimit="10" fill="none"/><path d="M35.417,31,19.958,39.833,4.5,31V13.333L19.958,4.5l15.458,8.833Z" transform="translate(13.167 13.167)" fill="none" stroke="#616d78" stroke-linecap="round" stroke-linejoin="round" stroke-miterlimit="10" stroke-width="2"/><path d="M66.75,98.667H.5V1.5H57.917l8.833,8.833Z" transform="translate(-0.5 2.917)" fill="none" stroke="#616d78" stroke-linecap="round" stroke-linejoin="round" stroke-miterlimit="10" stroke-width="2"/></g><rect width="106" height="106" fill="none"/></g></g></svg>