<svg xmlns="http://www.w3.org/2000/svg" xmlns:xlink="http://www.w3.org/1999/xlink" width="160" height="106" viewBox="0 0 160 106"><defs><linearGradient id="a" x1="0.5" x2="0.5" y2="1" gradientUnits="objectBoundingBox"><stop offset="0" stop-color="#c8e6aa"/><stop offset="1" stop-color="#a2cce4"/></linearGradient><linearGradient id="b" x1="0.5" x2="0.5" y2="1" gradientUnits="objectBoundingBox"><stop offset="0" stop-color="#a2cce4"/><stop offset="1" stop-color="#c8e6aa"/></linearGradient><clipPath id="e"><rect width="160" height="106"/></clipPath></defs><g id="d" clip-path="url(#e)"><g transform="translate(27)"><g transform="translate(2.208 6.625)"><path d="M84.417,58.917V19.167H22.583V1.5H.5V32.417H4.917v39.75h66.25v26.5h26.5V58.917Z" transform="translate(-0.5 -1.5)" fill="#fff"/><path d="M43,14.5V45.417H16.5Z" transform="translate(54.167 42.917)" fill="url(#a)"/><path d="M1.5,45.25H81V5.5Z" transform="translate(2.917 12.167)" fill="url(#b)"/><path d="M22.583,1.5V23.583H.5Z" transform="translate(-0.5 -1.5)" fill="url(#a)"/><path d="M58.917,41.417H1.5V10.5" transform="translate(2.917 29.25)" fill="none" stroke="#616d78" stroke-linecap="round" stroke-linejoin="round" stroke-miterlimit="10" stroke-width="2"/><path d="M7.5,5.5h53V36.417" transform="translate(23.417 12.167)" fill="none" stroke="#616d78" stroke-linecap="round" stroke-linejoin="round" stroke-miterlimit="10" stroke-width="2"/><line y2="17.667" transform="translate(44.167 70.667)" fill="none" stroke="#616d78" stroke-linejoin="round" stroke-miterlimit="10" stroke-width="2"/><line x2="35.333" transform="translate(26.5 88.333)" stroke-width="2" stroke="#616d78" stroke-linecap="round" stroke-linejoin="round" stroke-miterlimit="10" fill="none"/><line x2="57.417" transform="translate(4.417 57.417)" stroke-width="2" stroke="#616d78" stroke-linecap="round" stroke-linejoin="round" stroke-miterlimit="10" fill="none"/><rect width="22.083" height="30.917" fill="none" stroke="#616d78" stroke-linejoin="round" stroke-miterlimit="10" stroke-width="2"/><rect width="26.5" height="39.75" stroke-width="2" fill="none" stroke="#616d78" stroke-linejoin="round" stroke-miterlimit="10" transform="translate(70.667 57.417)"/><line x2="4.417" transform="translate(8.833 22.083)" stroke-width="2" stroke="#616d78" stroke-linecap="round" stroke-linejoin="round" stroke-miterlimit="10" fill="none"/><line x2="26.5" transform="translate(70.667 88.333)" fill="none" stroke="#616d78" stroke-linejoin="round" stroke-miterlimit="10" stroke-width="2"/><g transform="translate(59.625 26.5)"><line x2="14" y2="14" transform="translate(0.167 1.875)" stroke-width="2" stroke="#616d78" stroke-linecap="round" stroke-linejoin="round" stroke-miterlimit="10" fill="none"/><line x2="4.417" y2="4.417" transform="translate(11.042)" stroke-width="2" stroke="#616d78" stroke-linecap="round" stroke-linejoin="round" stroke-miterlimit="10" fill="none"/></g></g><rect width="106" height="106" fill="none"/></g></g></svg>